<?xml version="1.0" encoding="UTF-8" standalone="no"?>
<!-- Created with Inkscape (http://www.inkscape.org/) -->

<svg
   width="860"
   height="860"
   viewBox="0 0 227.54166 227.54166"
   version="1.1"
   id="svg1"
   xml:space="preserve"
   inkscape:version="1.4.2 (f4327f4, 2025-05-13)"
   sodipodi:docname="nic-logo-dark-pad.svg"
   inkscape:export-batch-path="D:\sources\processa\gitlab\nic\base-de-conhecimento\20-Elaborados\Anexos"
   inkscape:export-batch-name=""
   xmlns:inkscape="http://www.inkscape.org/namespaces/inkscape"
   xmlns:sodipodi="http://sodipodi.sourceforge.net/DTD/sodipodi-0.dtd"
   xmlns="http://www.w3.org/2000/svg"
   xmlns:svg="http://www.w3.org/2000/svg"><sodipodi:namedview
     id="namedview1"
     pagecolor="#ffffff"
     bordercolor="#000000"
     borderopacity="0.25"
     inkscape:showpageshadow="2"
     inkscape:pageopacity="0.0"
     inkscape:pagecheckerboard="false"
     inkscape:deskcolor="#d1d1d1"
     inkscape:document-units="px"
     showborder="true"
     labelstyle="default"
     inkscape:zoom="0.70710678"
     inkscape:cx="156.2706"
     inkscape:cy="203.64675"
     inkscape:window-width="1920"
     inkscape:window-height="996"
     inkscape:window-x="1358"
     inkscape:window-y="-8"
     inkscape:window-maximized="1"
     inkscape:current-layer="layer1"
     showguides="true" /><defs
     id="defs1" /><g
     inkscape:label="Camada 1"
     inkscape:groupmode="layer"
     id="layer1"
     transform="translate(1614.8248,1187.7761)"><g
       id="nic-logo-dark"
       transform="translate(-954.73881,-1521.6449)"><g
         id="g8"
         transform="translate(-79.325572,34.576217)"><path
           id="path7"
           style="baseline-shift:baseline;display:inline;overflow:visible;vector-effect:none;fill:#ffffff;fill-opacity:1;stroke-width:0.990471;stroke-linecap:square;paint-order:markers stroke fill;enable-background:accumulate;stop-color:#000000"
           d="m -399.15479,362.92058 c -25.7132,0 -49.68392,18.87725 -49.70916,48.13721 l -0.004,4.60958 c -0.0201,23.28038 18.26521,43.88445 42.57069,47.0995 -2.51881,-3.02096 -4.03444,-6.90779 -4.03444,-11.1469 0,-5.38021 2.44144,-10.19238 6.27659,-13.38794 -12.82453,-2.25923 -20.34642,-11.80514 -20.346,-22.22574 l 5.1e-4,-5.45766 c 5.1e-4,-12.59387 10.09771,-23.16216 25.37064,-23.16216 h 7.06487 v -24.46589 z m -55.4587,23.84009 c -3.15708,3.18873 -7.53657,5.16475 -12.37579,5.16475 -4.69484,0 -8.95701,-1.85988 -12.09002,-4.88252 v 76.05932 l 24.46581,0.10427 z m -64.46308,-23.84009 c -0.0568,5.9e-4 -0.11352,5.9e-4 -0.17023,0 -0.0486,6.9e-4 -0.0976,0.01 -0.14621,0.01 -18.64166,-0.0228 -33.9359,15.4422 -33.9359,33.69771 v 42.62485 c 3.14774,-3.12205 7.48025,-5.05118 12.2623,-5.05118 4.75123,0 9.05996,1.9043 12.20351,4.99094 v -42.50021 c 0.21153,-4.41292 3.31723,-8.04423 7.46923,-9.04426 0.93522,-0.1836 1.7583,-0.24316 2.3173,-0.25869 0.55777,0.0158 1.3785,0.0742 2.31116,0.25721 4.15471,0.99824 7.26366,4.63114 7.47537,9.04574 v 66.51351 h 24.46581 v -66.57791 -4.9e-4 c 0,-17.93569 -15.29448,-33.69722 -33.93744,-33.69722 -0.0484,-7.9e-4 -0.0963,-0.01 -0.14467,-0.01 -0.0567,-7.9e-4 -0.11349,-5.9e-4 -0.17023,0 z"
           sodipodi:nodetypes="ssscscsssccscsccccsccscscccccccccsccs" /><path
           style="baseline-shift:baseline;display:inline;overflow:visible;vector-effect:none;fill:#5fbcd3;fill-opacity:1;stroke-width:0.989244;stroke-linecap:square;paint-order:markers stroke fill;enable-background:accumulate;stop-color:#000000"
           d="m -392.91525,436.03334 c 8.63272,0 15.58737,6.95468 15.58738,15.58742 -10e-6,8.63274 -6.95466,15.58504 -15.58738,15.58504 -8.63273,0 -15.58512,-6.9523 -15.58513,-15.58504 1e-5,-8.63274 6.9524,-15.58742 15.58513,-15.58742 z m -74.07321,-45.93981 c -8.63273,0 -15.58737,-6.95458 -15.58738,-15.58732 1e-5,-8.63274 6.95465,-15.58514 15.58738,-15.58514 8.63273,0 15.58512,6.9524 15.58513,15.58514 -1e-5,8.63274 -6.9524,15.58732 -15.58513,15.58732 z m -74.07771,45.93981 c 8.63273,0 15.58737,6.95468 15.58738,15.58742 -10e-6,8.63274 -6.95465,15.58504 -15.58738,15.58504 -8.63273,0 -15.58512,-6.9523 -15.58513,-15.58504 10e-6,-8.63274 6.9524,-15.58742 15.58513,-15.58742 z"
           id="path8" /></g></g></g></svg>
