<?xml version="1.0" encoding="UTF-8" standalone="no"?>
<!-- Created with Inkscape (http://www.inkscape.org/) -->

<svg
   width="860"
   height="860"
   viewBox="0 0 227.54165 227.54167"
   version="1.1"
   id="svg1"
   xml:space="preserve"
   inkscape:version="1.4.2 (f4327f4, 2025-05-13)"
   sodipodi:docname="nic-logo-text-dark-pad.svg"
   inkscape:export-batch-path="D:\sources\processa\gitlab\nic\base-de-conhecimento\20-Elaborados\Anexos"
   inkscape:export-batch-name=""
   xmlns:inkscape="http://www.inkscape.org/namespaces/inkscape"
   xmlns:sodipodi="http://sodipodi.sourceforge.net/DTD/sodipodi-0.dtd"
   xmlns="http://www.w3.org/2000/svg"
   xmlns:svg="http://www.w3.org/2000/svg"><sodipodi:namedview
     id="namedview1"
     pagecolor="#ffffff"
     bordercolor="#000000"
     borderopacity="0.25"
     inkscape:showpageshadow="2"
     inkscape:pageopacity="0.0"
     inkscape:pagecheckerboard="false"
     inkscape:deskcolor="#d1d1d1"
     inkscape:document-units="px"
     showborder="true"
     labelstyle="default"
     inkscape:zoom="0.70710678"
     inkscape:cx="314.66252"
     inkscape:cy="548.71486"
     inkscape:window-width="1920"
     inkscape:window-height="996"
     inkscape:window-x="1358"
     inkscape:window-y="-8"
     inkscape:window-maximized="1"
     inkscape:current-layer="layer1"
     showguides="true" /><defs
     id="defs1" /><g
     inkscape:label="Camada 1"
     inkscape:groupmode="layer"
     id="layer1"
     transform="translate(1624.6891,907.77277)"><g
       id="nic-logo-text-dark"
       transform="matrix(1.1967478,0,0,1.1967478,-1352.6086,1529.7385)"><g
         id="g56"
         transform="matrix(0.82661034,0,0,0.82661034,-22.936543,-370.51175)"><path
           id="path54"
           style="baseline-shift:baseline;display:inline;overflow:visible;vector-effect:none;fill:#ffffff;fill-opacity:1;stroke-width:1.00124;stroke-linecap:square;paint-order:markers stroke fill;enable-background:accumulate;stop-color:#000000"
           d="m -63.71084,-1991.4355 c -25.99277,0 -50.22412,19.0825 -50.24964,48.6606 l -0.004,4.6597 c -0.0203,23.5335 18.4638,44.3616 43.03355,47.6116 -2.54619,-3.0538 -4.0783,-6.9829 -4.0783,-11.2681 0,-5.4387 2.46798,-10.3032 6.34483,-13.5335 -12.96397,-2.2838 -20.56764,-11.9335 -20.56722,-22.4674 l 5.2e-4,-5.517 c 5.1e-4,-12.7308 10.2075,-23.414 25.64649,-23.414 h 7.141687 v -24.7319 z m -56.06169,24.0993 c -3.19141,3.2234 -7.61852,5.2209 -12.51035,5.2209 -4.74589,0 -9.0544,-1.8801 -12.22147,-4.9356 v 76.8863 l 24.73182,0.1054 z m -65.16398,-24.0993 c -0.0574,6e-4 -0.11475,6e-4 -0.17208,0 -0.0491,7e-4 -0.0987,0.01 -0.1478,0.01 -18.84435,-0.023 -34.30488,15.6101 -34.30488,34.0641 v 43.0883 c 3.18197,-3.156 7.56158,-5.1061 12.39563,-5.1061 4.80289,0 9.15846,1.925 12.33619,5.0452 v -42.9623 c 0.21383,-4.4609 3.3533,-8.1317 7.55045,-9.1426 0.94538,-0.1856 1.77741,-0.2458 2.34249,-0.2615 0.56384,0.016 1.39349,0.075 2.33629,0.26 4.19988,1.0091 7.34264,4.6815 7.55665,9.1441 v 67.2367 h 24.73182 v -67.3018 -5e-4 c 0,-18.1307 -15.46077,-34.0636 -34.30643,-34.0636 -0.0489,-8e-4 -0.0974,-0.01 -0.14625,-0.01 -0.0573,-8e-4 -0.11472,-6e-4 -0.17208,0 z"
           sodipodi:nodetypes="ssscscsssccscsccccsccscscccccccccsccs" /><path
           style="baseline-shift:baseline;display:inline;overflow:visible;vector-effect:none;fill:#5fbcd3;fill-opacity:1;stroke-linecap:square;paint-order:markers stroke fill;enable-background:accumulate;stop-color:#000000"
           d="m -57.40346,-1917.5278 c 8.72659,0 15.75685,7.0303 15.75686,15.7569 -1e-5,8.7266 -7.03027,15.7545 -15.75686,15.7545 -8.72659,0 -15.75457,-7.0279 -15.75458,-15.7545 1e-5,-8.7266 7.02799,-15.7569 15.75458,-15.7569 z m -74.87859,-46.4393 c -8.72659,0 -15.75685,-7.0302 -15.75686,-15.7568 10e-6,-8.7266 7.03027,-15.7546 15.75686,-15.7546 8.72659,0 15.75457,7.028 15.75458,15.7546 -1e-5,8.7266 -7.02799,15.7568 -15.75458,15.7568 z m -74.88315,46.4393 c 8.72659,0 15.75685,7.0303 15.75686,15.7569 -1e-5,8.7266 -7.03027,15.7545 -15.75686,15.7545 -8.72659,0 -15.75457,-7.0279 -15.75458,-15.7545 1e-5,-8.7266 7.02799,-15.7569 15.75458,-15.7569 z"
           id="path55" /></g><g
         id="g81"
         transform="matrix(0.91230109,0,0,0.91230109,-5.3111593,-196.00261)"><g
           id="g80"><text
             xml:space="preserve"
             style="font-weight:bold;font-size:20.4091px;line-height:0.9;font-family:'Courier New';-inkscape-font-specification:'Courier New Bold';text-align:start;letter-spacing:-1.04499px;writing-mode:lr-tb;direction:ltr;text-anchor:start;fill:#ffffff;fill-opacity:1;stroke:none;stroke-width:0.225523;stroke-linecap:butt;stroke-linejoin:miter;stroke-dasharray:none;stroke-opacity:1;paint-order:markers stroke fill"
             x="-220.30568"
             y="-1866.4618"
             id="text58"><tspan
               sodipodi:role="line"
               style="font-style:normal;font-variant:normal;font-weight:800;font-stretch:normal;line-height:0.9;font-family:Montserrat;-inkscape-font-specification:'Montserrat Ultra-Bold';text-align:start;letter-spacing:-1.04499px;text-anchor:start;fill:#ffffff;fill-opacity:1;stroke:none;stroke-width:0.225523;stroke-dasharray:none"
               x="-220.30568"
               y="-1866.4618"
               id="tspan56">Núcleo</tspan><tspan
               sodipodi:role="line"
               style="font-style:normal;font-variant:normal;font-weight:800;font-stretch:normal;line-height:0.9;font-family:Montserrat;-inkscape-font-specification:'Montserrat Ultra-Bold';text-align:start;letter-spacing:-1.04499px;text-anchor:start;fill:#ffffff;fill-opacity:1;stroke:none;stroke-width:0.225523;stroke-dasharray:none"
               x="-220.30568"
               y="-1847.2322"
               id="tspan57">Inteligência</tspan><tspan
               sodipodi:role="line"
               style="font-style:normal;font-variant:normal;font-weight:800;font-stretch:normal;line-height:0.9;font-family:Montserrat;-inkscape-font-specification:'Montserrat Ultra-Bold';text-align:start;letter-spacing:-1.04499px;text-anchor:start;fill:#ffffff;fill-opacity:1;stroke:none;stroke-width:0.225523;stroke-dasharray:none"
               x="-220.30568"
               y="-1828.0024"
               id="tspan58">   Conhecimento</tspan></text><text
             xml:space="preserve"
             style="font-weight:bold;font-size:20.4091px;line-height:0.9;font-family:'Courier New';-inkscape-font-specification:'Courier New Bold';text-align:start;letter-spacing:-1.04499px;writing-mode:lr-tb;direction:ltr;text-anchor:start;fill:#5fbcd3;fill-opacity:1;stroke:none;stroke-width:0.225523;stroke-linecap:butt;stroke-linejoin:miter;stroke-dasharray:none;stroke-opacity:1;paint-order:markers stroke fill"
             x="-220.30568"
             y="-1866.4618"
             id="text80"><tspan
               sodipodi:role="line"
               style="font-style:normal;font-variant:normal;font-weight:800;font-stretch:normal;line-height:0.9;font-family:Montserrat;-inkscape-font-specification:'Montserrat Ultra-Bold';text-align:start;letter-spacing:-1.04499px;text-anchor:start;fill:#5fbcd3;fill-opacity:1;stroke:none;stroke-width:0.225523;stroke-dasharray:none"
               x="-220.30568"
               y="-1866.4618"
               id="tspan77"><tspan
                 style="font-style:italic;font-weight:normal;line-height:0.9;fill:#5fbcd3;fill-opacity:1;stroke:none;stroke-width:0.225523;stroke-dasharray:none"
                 id="tspan76">                 de</tspan></tspan><tspan
               sodipodi:role="line"
               style="font-style:normal;font-variant:normal;font-weight:800;font-stretch:normal;line-height:0.9;font-family:Montserrat;-inkscape-font-specification:'Montserrat Ultra-Bold';text-align:start;letter-spacing:-1.04499px;text-anchor:start;fill:#5fbcd3;fill-opacity:1;stroke:none;stroke-width:0.225523;stroke-dasharray:none"
               x="-220.30568"
               y="-1847.2322"
               id="tspan78" /><tspan
               sodipodi:role="line"
               style="font-style:normal;font-variant:normal;font-weight:800;font-stretch:normal;line-height:0.9;font-family:Montserrat;-inkscape-font-specification:'Montserrat Ultra-Bold';text-align:start;letter-spacing:-1.04499px;text-anchor:start;fill:#5fbcd3;fill-opacity:1;stroke:none;stroke-width:0.225523;stroke-dasharray:none"
               x="-220.30568"
               y="-1828.0024"
               id="tspan80"><tspan
                 style="font-style:italic;font-weight:normal;line-height:0.9;fill:#5fbcd3;fill-opacity:1;stroke:none;stroke-width:0.225523;stroke-dasharray:none"
                 id="tspan79">e</tspan></tspan></text></g></g><g
         id="g82"
         transform="matrix(0.82661034,0,0,0.82661034,-336.849,-119.13166)" /><g
         id="g84"
         transform="matrix(0.91230109,0,0,0.91230109,-319.22361,55.377484)"><g
           id="g83" /></g></g></g></svg>
