<?xml version="1.0" encoding="UTF-8" standalone="no"?>
<!-- Created with Inkscape (http://www.inkscape.org/) -->

<svg
   width="677.75781"
   height="678.48206"
   viewBox="0 0 179.32341 179.51504"
   version="1.1"
   id="svg1"
   xml:space="preserve"
   xmlns="http://www.w3.org/2000/svg"
   xmlns:svg="http://www.w3.org/2000/svg"><defs
     id="defs1" /><g
     id="layer1"
     transform="translate(2262.2873,907.77275)"><g
       id="nic-insight-logo-dark"><path
         id="text27-4-8"
         style="font-size:43.9553px;line-height:0.9;font-family:'Gloria Hallelujah';-inkscape-font-specification:'Gloria Hallelujah';letter-spacing:0px;fill:#5fbcd3;stroke-width:0.604446;paint-order:markers stroke fill"
         d="m -2247.2878,-764.99547 q 0.5366,-2.67459 0.5084,-5.80335 -0.028,-3.12876 -0.1269,-6.4089 -0.099,-3.28017 -0.157,-6.50986 -0.048,-3.28016 0.4785,-6.15659 h -11.2534 q 0.081,-0.40371 0.233,-1.16067 0.1518,-0.75697 0.4551,-1.51393 0.3135,-0.80742 0.7378,-1.41299 0.4346,-0.65603 1.0704,-0.80742 h 27.7551 q -0.3745,1.61484 -1.1522,2.47273 -0.7777,0.8579 -1.878,1.31206 -1.0502,0.45418 -2.2917,0.60559 -1.2313,0.10095 -2.4728,0.25231 -1.2415,0.15138 -2.4529,0.40369 -1.2012,0.20187 -2.1906,0.85791 -0.939,0.65602 -1.6262,1.81669 -0.6266,1.1102 -0.8096,3.02784 -0.2125,1.05973 -0.4157,2.82597 -0.193,1.71578 -0.2446,3.73433 -0.051,2.01856 0.088,4.08758 0.1502,2.01856 0.6134,3.73433 0.5235,1.66531 1.3707,2.72506 0.9075,1.00927 2.371,1.00927 0.9891,0.10095 2.5636,0.0504 1.635,-0.10085 3.2601,-0.15138 1.6249,-0.0504 3.0176,0.0504 1.4433,0.10084 1.998,0.60556 0.5548,0.50464 0,1.51392 -0.5455,0.95882 -2.747,2.62412 -3.4728,1.21113 -6.8945,1.66532 -3.3613,0.40371 -6.7018,0.45417 -3.3307,0 -6.6411,-0.10084 -3.3002,-0.1514 -6.5803,-0.1514 -1.4115,-2.27088 -1.5216,-3.48201 -0.1105,-1.21113 0.5864,-1.6653 0.7573,-0.50465 2.1199,-0.50465 1.4231,-0.0504 3.0074,0.10096 1.5947,0.10085 3.1893,0.20185 1.6048,0.0504 2.7354,-0.30278 z m 21.3682,-9.99186 q 0.2632,-1.31206 1.0306,-1.86716 0.7776,-0.60557 2.241,-0.60557 h 0.5048 q -0.013,0.80742 -0.021,1.86717 -0.013,1.05975 0.17,2.16995 0.1809,1.11021 0.5435,2.06902 0.3729,0.90834 1.0688,1.46344 0.4051,-1.76621 1.5366,-3.38108 1.1921,-1.6653 2.6563,-2.92689 1.525,-1.31208 3.1605,-2.16995 1.6962,-0.90835 3.2206,-1.21114 h 1.1102 q 2.4222,0 3.9151,1.11021 1.5032,1.05974 2.2589,2.82597 0.8163,1.71578 0.9763,3.93619 0.1599,2.22042 0,4.54175 -0.1024,2.27087 -0.4875,4.44083 -0.3242,2.11948 -0.6279,3.6334 h -3.6839 q 0.3049,-3.02784 0.4076,-5.80336 0.072,-1.11019 0.062,-2.32134 8e-4,-1.26159 -0.09,-2.32133 -0.079,-1.11021 -0.2509,-2.01855 -0.1609,-0.95883 -0.4833,-1.61486 -0.1614,-0.20185 -0.4438,-0.55509 -0.2319,-0.35326 -0.5143,-0.70649 -0.2824,-0.35326 -0.5344,-0.60558 -0.2522,-0.25232 -0.3026,-0.25232 -1.433,-0.4037 -2.7456,0.60557 -1.3027,0.95882 -2.4946,2.62413 -1.1923,1.66529 -2.1726,3.78479 -0.9301,2.11948 -1.6783,4.08757 -0.738,1.91762 -1.1831,3.38107 -0.435,1.41299 -0.5463,1.71579 -1.4437,0.90835 -2.483,0.5551 -1.0292,-0.40371 -1.7955,-1.61485 -0.7157,-1.21112 -1.1586,-3.02783 -0.3925,-1.8167 -0.6435,-3.83525 -0.2407,-2.06902 -0.3806,-4.13804 -0.09,-2.06903 -0.1387,-3.83527 z m 32.8397,14.73546 q 0.9189,-0.55511 2.2012,-1.41298 1.3429,-0.90836 2.7062,-1.91764 1.3633,-1.00927 2.5953,-2.11948 1.2322,-1.11019 1.9897,-2.11948 0.8183,-1.05974 1.0006,-1.9681 0.1824,-0.90835 -0.6047,-1.51391 -1.6148,0 -3.5627,0.1514 -1.9379,0.10095 -3.8555,0.10095 -1.9075,-0.0504 -3.6634,-0.35325 -1.7057,-0.30278 -2.9565,-1.1102 -1.2511,-0.80742 -1.8152,-2.27088 -0.5036,-1.51391 -0.037,-3.83526 0.5468,-2.72504 1.9917,-4.89499 1.5053,-2.22042 3.5552,-3.88572 2.0599,-1.71578 4.4329,-2.97737 2.4331,-1.31207 4.7853,-2.22042 1.2412,0.35325 2.1689,1.26159 0.9282,0.90836 1.5128,2.01855 -0.5761,1.11022 -1.7574,1.71579 -1.1307,0.60557 -2.5845,1.05973 -1.403,0.45418 -2.9679,0.95883 -1.5647,0.50464 -2.9479,1.36252 -1.3228,0.80743 -2.4037,2.16995 -1.0707,1.31206 -1.506,3.48201 -0.3242,1.61484 0.3313,2.3718 0.6555,0.75695 1.9069,1.05974 1.2613,0.25232 2.9368,0.20185 1.6856,-0.10095 3.4317,-0.25231 1.7967,-0.1514 3.462,-0.1514 1.6755,-0.0504 2.8962,0.40371 1.2312,0.40373 1.7959,1.36252 0.6149,0.95883 0.2403,2.82599 -0.1622,0.80742 -0.9705,2.06903 -0.7579,1.26159 -1.9599,2.72503 -1.1415,1.41299 -2.6362,2.826 -1.4441,1.41298 -2.9891,2.57366 -1.4844,1.1102 -2.9484,1.86716 -1.4033,0.7065 -2.5134,0.7065 -1.0599,0 -1.2612,-0.75697 -0.1509,-0.75696 0,-1.51391 z m 19.4068,-16.65308 q 0.061,-0.30277 0.1925,-0.95881 0.1923,-0.7065 0.3442,-1.46346 0.2024,-0.75697 0.3443,-1.46347 0.1923,-0.70648 0.253,-1.00927 0.7171,-0.80742 1.6763,-1.31206 1.0095,-0.50464 1.9788,-0.80741 -0.3956,2.72504 -0.3067,5.80334 0.088,3.0783 0.2681,6.20706 0.1898,3.07831 0.1877,6.10614 0.048,3.02782 -0.4782,5.65195 -0.4558,2.27089 -2.7771,2.27089 -1.413,0 -2.1389,-1.16068 -0.7257,-1.16067 -0.9769,-2.92691 -0.1905,-1.8167 -0.108,-3.98665 0.093,-2.2204 0.3663,-4.33989 0.3242,-2.11948 0.6283,-3.88572 0.3545,-1.76624 0.5469,-2.72505 z m 4.5043,-18.92397 q 0.8775,0.40372 1.3515,1.31207 0.4736,0.90835 0.2207,1.66531 -0.1923,0.70649 -1.3127,1.00927 -1.1102,0.25232 -3.4109,-0.60555 0.2734,-1.36254 0.9807,-2.37182 0.7577,-1.00928 2.1707,-1.00928 z m 9.1203,64.69472 q 2.8259,0 5.259,-1.05973 2.423,-1.00929 4.3014,-2.82598 1.9188,-1.76624 3.1921,-4.08758 1.3136,-2.27087 1.8098,-4.74361 0.2532,-1.26159 0.5171,-3.33061 0.3142,-2.06902 0.5481,-4.49129 0.2336,-2.42227 0.2354,-4.94546 0.052,-2.5232 -0.2088,-4.7436 -0.2507,-2.27089 -0.9763,-3.93619 -0.665,-1.71577 -1.8856,-2.42228 -1.5147,1.00929 -2.9485,1.86716 -1.4236,0.80743 -2.8975,1.36254 -1.4739,0.55511 -3.0083,0.90834 -1.5242,0.3028 -3.1895,0.3028 -2.17,0 -3.6534,-0.40372 -1.4329,-0.40371 -2.3002,-1.36253 -0.8168,-0.9588 -1.0075,-2.52318 -0.1905,-1.5644 0.2853,-3.9362 0.3342,-1.66531 1.4556,-3.22969 1.1314,-1.61484 2.7169,-2.97737 1.6461,-1.41299 3.5442,-2.57367 1.9488,-1.16066 3.8874,-2.01854 1.9887,-0.85789 3.7955,-1.31207 1.8574,-0.45416 3.2201,-0.45416 1.312,0 2.1496,0.10095 0.8478,0.0504 1.3824,0.40372 0.5449,0.30278 0.8067,1.00928 0.3226,0.65602 0.4934,1.8167 0.3707,3.9362 0.9732,8.47794 0.6025,4.54174 1.003,9.33582 0.4006,4.79407 0.3365,9.6386 -0.023,4.89501 -0.9348,9.43674 -0.8103,4.03712 -2.5279,6.81263 -1.6772,2.82599 -3.899,4.59224 -2.1811,1.81669 -4.7455,2.7755 -2.5137,0.95881 -4.9362,1.21114 -2.4325,0.30277 -4.6226,0.15139 -2.19,-0.15139 -3.7136,-0.60558 -1.5339,-0.40371 -2.2805,-0.95879 -0.6959,-0.55512 -0.2111,-0.95883 0.525,-0.35325 2.4226,-0.50464 1.8975,-0.1514 5.6115,0.20187 z m 10.4791,-48.69766 q -3.8964,0.80742 -6.5115,2.27087 -2.5545,1.41299 -4.0492,3.0783 -1.4344,1.61485 -1.8696,3.28015 -0.425,1.61486 0.048,2.77551 0.4734,1.16068 1.6641,1.76625 1.2511,0.5551 3.0681,0.0504 1.8272,-0.55511 4.0992,-2.32135 2.3226,-1.76623 4.9895,-5.24824 0.1721,-0.8579 0.3747,-1.86717 0.2531,-1.00927 0.213,-1.8167 -0.029,-0.85789 -0.4733,-1.41299 -0.4436,-0.55511 -1.5539,-0.55511 z m 19.1532,-10.95067 q 0.1117,-0.5551 0.3745,-1.36252 0.3238,-0.85789 0.7784,-1.61485 0.5051,-0.75695 1.111,-1.26159 0.6162,-0.55511 1.4235,-0.55511 0.05,0 0.2422,0.0504 0.1918,0.0504 0.2422,0.0504 0.23,3.12877 -0.2365,6.20707 -0.4662,3.07829 -1.3063,6.00519 -0.8294,2.87644 -1.8809,5.60149 -1.0414,2.67459 -1.8504,4.94548 -0.7586,2.27087 -1.2239,4.08756 -0.4151,1.81671 -0.063,3.0783 0.061,-0.80741 0.2333,-1.91762 0.233,-1.16068 0.678,-2.3718 0.4952,-1.21113 1.2431,-2.42227 0.798,-1.21114 1.9996,-2.16995 1.2018,-0.95881 2.8776,-1.51392 1.7261,-0.5551 4.098,-0.5551 2.4727,0 4.0668,0.85788 1.6446,0.8579 2.5014,2.37181 0.867,1.46346 1.0171,3.482 0.2106,1.9681 -0.2451,4.23897 -0.2127,1.05974 -0.5366,2.42228 -0.2635,1.31205 -0.8495,2.47273 -0.5256,1.11021 -1.5454,1.91763 -0.9595,0.75696 -2.5743,0.75696 0.1621,-0.80742 0.5366,-2.16996 0.3847,-1.41298 0.6987,-2.97736 0.3644,-1.56438 0.5368,-3.17923 0.2229,-1.61485 -0.078,-2.87643 -0.2917,-1.31207 -1.139,-2.1195 -0.7867,-0.85788 -2.5024,-0.85788 -0.6055,0 -1.5341,0.10095 -0.8681,0.0504 -1.8573,0.45416 -0.9896,0.40371 -2.0196,1.26161 -1.0198,0.80741 -1.8182,2.27088 -0.7882,1.41298 -1.3348,3.6334 -0.486,2.16993 -0.5183,5.34917 -0.5355,0.90835 -1.121,1.05973 -0.535,0.1514 -1.3424,0.1514 -1.6149,0 -2.4519,-1.1102 -0.7764,-1.16067 -0.9465,-3.07832 -0.1704,-1.91762 0.1342,-4.4408 0.3549,-2.52321 0.952,-5.24825 0.6076,-2.77552 1.3766,-5.6015 0.8295,-2.87644 1.5377,-5.39964 0.7688,-2.57365 1.3859,-4.64267 0.6776,-2.1195 0.9307,-3.38109 z m 11.8644,7.36774 q 0.03,-0.1514 0.1014,-0.25233 0.02,-0.10085 0.1013,-0.25231 0.2527,-0.25232 0.7374,-0.65603 0.4847,-0.40372 0.5855,-0.40372 h 10.1434 q 0.1117,-0.5551 0.2029,-1.76624 0.092,-1.21113 0.234,-2.67459 0.1926,-1.46344 0.557,-3.02781 0.3747,-1.61487 0.981,-2.87646 0.6671,-1.31207 1.6365,-2.11949 1.03,-0.85789 2.544,-0.85789 -1.0229,5.09687 -0.9341,8.17517 0.088,3.07829 0.9153,4.7436 0.8769,1.66531 2.2894,2.16995 1.4128,0.50464 2.9872,0.45418 1.6351,-0.10085 3.2302,-0.50465 1.5949,-0.40371 2.7858,-0.55509 1.2416,-0.1514 1.8671,0.25231 0.6355,0.35325 0.352,1.76623 -0.2127,1.05976 -0.8084,1.51391 -0.5452,0.45419 -1.9585,0.70651 -0.4138,0.0504 -1.403,0.20185 -0.9286,0.10106 -2.1096,0.20187 -1.181,0.10095 -2.5233,0.25231 -1.3324,0.10085 -2.5133,0.20185 -1.1809,0.10085 -2.1499,0.1514 -0.9589,0 -1.413,0 -0.05,0.25231 -0.2227,0.85788 -0.172,0.60558 -0.2125,0.80743 -0.4455,2.22041 -0.1643,4.33988 0.2911,2.06902 0.6834,4.13804 0.4425,2.06902 0.7339,4.13805 0.2915,2.06902 -0.1542,4.28943 -0.081,0.40371 -0.2732,0.85789 -0.1316,0.4037 -0.4547,0.75697 -0.2627,0.30277 -0.7472,0.45417 -0.4442,0.20184 -1.1506,-0.0504 -1.8163,-0.50464 -2.4408,-2.16995 -0.5743,-1.66532 -0.5728,-3.93619 0.012,-2.32134 0.3768,-4.895 0.3652,-2.57366 0.4575,-4.79408 0.1527,-2.27087 -0.2397,-3.83526 -0.3825,-1.61483 -1.8759,-1.96809 l -9.2939,-2.22041 q -0.2019,0 -0.5247,-0.4037 -0.3125,-0.45418 -0.3729,-0.65604 -0.03,-0.10106 10e-5,-0.25231 -0.03,-0.10085 0.013,-0.30279 z" /><g
         id="g63"
         transform="matrix(0.98924411,0,0,0.98924411,-2041.7652,1066.2426)"><path
           id="path62"
           style="baseline-shift:baseline;display:inline;overflow:visible;vector-effect:none;fill:#ffffff;fill-opacity:1;stroke-width:1.00124;stroke-linecap:square;paint-order:markers stroke fill;enable-background:accumulate;stop-color:#000000"
           d="m -63.71084,-1991.4355 c -25.99277,0 -50.22412,19.0825 -50.24964,48.6606 l -0.004,4.6597 c -0.0203,23.5335 18.4638,44.3616 43.03355,47.6116 -2.54619,-3.0538 -4.0783,-6.9829 -4.0783,-11.2681 0,-5.4387 2.46798,-10.3032 6.34483,-13.5335 -12.96397,-2.2838 -20.56764,-11.9335 -20.56722,-22.4674 l 5.2e-4,-5.517 c 5.1e-4,-12.7308 10.2075,-23.414 25.64649,-23.414 h 7.141687 v -24.7319 z m -56.06169,24.0993 c -3.19141,3.2234 -7.61852,5.2209 -12.51035,5.2209 -4.74589,0 -9.0544,-1.8801 -12.22147,-4.9356 v 76.8863 l 24.73182,0.1054 z m -65.16398,-24.0993 c -0.0574,6e-4 -0.11475,6e-4 -0.17208,0 -0.0491,7e-4 -0.0987,0.01 -0.1478,0.01 -18.84435,-0.023 -34.30488,15.6101 -34.30488,34.0641 v 43.0883 c 3.18197,-3.156 7.56158,-5.1061 12.39563,-5.1061 4.80289,0 9.15846,1.925 12.33619,5.0452 v -42.9623 c 0.21383,-4.4609 3.3533,-8.1317 7.55045,-9.1426 0.94538,-0.1856 1.77741,-0.2458 2.34249,-0.2615 0.56384,0.016 1.39349,0.075 2.33629,0.26 4.19988,1.0091 7.34264,4.6815 7.55665,9.1441 v 67.2367 h 24.73182 v -67.3018 -5e-4 c 0,-18.1307 -15.46077,-34.0636 -34.30643,-34.0636 -0.0489,-8e-4 -0.0974,-0.01 -0.14625,-0.01 -0.0573,-8e-4 -0.11472,-6e-4 -0.17208,0 z" /><path
           style="baseline-shift:baseline;display:inline;overflow:visible;vector-effect:none;fill:#5fbcd3;fill-opacity:1;stroke-linecap:square;paint-order:markers stroke fill;enable-background:accumulate;stop-color:#000000"
           d="m -57.40346,-1917.5278 c 8.72659,0 15.75685,7.0303 15.75686,15.7569 -1e-5,8.7266 -7.03027,15.7545 -15.75686,15.7545 -8.72659,0 -15.75457,-7.0279 -15.75458,-15.7545 1e-5,-8.7266 7.02799,-15.7569 15.75458,-15.7569 z m -74.87859,-46.4393 c -8.72659,0 -15.75685,-7.0302 -15.75686,-15.7568 10e-6,-8.7266 7.03027,-15.7546 15.75686,-15.7546 8.72659,0 15.75457,7.028 15.75458,15.7546 -1e-5,8.7266 -7.02799,15.7568 -15.75458,15.7568 z m -74.88315,46.4393 c 8.72659,0 15.75685,7.0303 15.75686,15.7569 -1e-5,8.7266 -7.03027,15.7545 -15.75686,15.7545 -8.72659,0 -15.75457,-7.0279 -15.75458,-15.7545 1e-5,-8.7266 7.02799,-15.7569 15.75458,-15.7569 z"
           id="path63" /></g></g></g></svg>
